<svg width="30" height="30" viewBox="0 0 30 30" fill="none" xmlns="http://www.w3.org/2000/svg">
<g clip-path="url(#clip0-856330)">
<path d="M24.6425 15C24.0508 15 23.5711 15.4797 23.5711 16.0715V26.7856C23.5711 27.3773 23.0914 27.857 22.4996 27.857H3.21424C2.6225 27.857 2.14281 27.3773 2.14281 26.7856V5.35731C2.14281 4.76556 2.6225 4.28587 3.21424 4.28587H16.0712C16.663 4.28587 17.1427 3.80619 17.1427 3.21444C17.1427 2.62269 16.663 2.14307 16.0712 2.14307H3.21424C1.43906 2.14307 0 3.58213 0 5.35731V26.7856C0 28.5608 1.43906 29.9998 3.21424 29.9998H22.4997C24.2749 29.9998 25.7139 28.5608 25.7139 26.7856V16.0714C25.7139 15.4797 25.2343 15 24.6425 15Z" fill="black"/>
<path d="M28.799 1.20165C28.0297 0.432239 26.9863 7.44999e-05 25.8983 0.000200056C24.8096 -0.00293885 23.7651 0.429979 22.998 1.20234L8.88524 15.3139C8.76816 15.4318 8.67983 15.5752 8.62703 15.7328L6.48422 22.1613C6.2972 22.7227 6.60074 23.3294 7.16216 23.5163C7.27108 23.5526 7.38515 23.5711 7.49991 23.5713C7.61492 23.5711 7.72924 23.5526 7.83847 23.5167L14.267 21.3738C14.4249 21.3211 14.5683 21.2323 14.6859 21.1146L28.7986 7.00191C30.4004 5.40032 30.4006 2.80343 28.799 1.20165ZM27.2836 5.48795L13.3552 19.4164L9.1938 20.806L10.5791 16.6499L24.5129 2.72157C25.2789 1.95706 26.5197 1.95831 27.2842 2.72433C27.6494 3.09027 27.8552 3.58565 27.8568 4.10263C27.8581 4.62237 27.6517 5.12108 27.2836 5.48795Z" fill="black"/>
</g>
<defs>
<clipPath id="clip0-856330">
<rect width="30" height="30" fill="b"/>
</clipPath>
</defs>
</svg>
